<!DOCTYPE svg PUBLIC "-//W3C//DTD SVG 1.1//EN" "http://www.w3.org/Graphics/SVG/1.1/DTD/svg11.dtd">
<!-- Uploaded to: SVG Repo, www.svgrepo.com, Transformed by: SVG Repo Mixer Tools -->
<svg height="800px" width="800px" version="1.1" id="_x32_" xmlns="http://www.w3.org/2000/svg" xmlns:xlink="http://www.w3.org/1999/xlink" viewBox="0 0 512 512" xml:space="preserve" fill="#ffffff" stroke="#ffffff">
<g id="SVGRepo_bgCarrier" stroke-width="0"/>
<g id="SVGRepo_tracerCarrier" stroke-linecap="round" stroke-linejoin="round"/>
<g id="SVGRepo_iconCarrier"> <style type="text/css"> .st0{fill:#ffffff;} </style> <g> <path class="st0" d="M302.085,199.562l-56.034-15.928c-5.258-1.489-10.821-0.09-14.582,3.671l-53.2,53.2 c-3.769,3.769-5.175,9.326-3.679,14.59l15.921,56.034c1.489,5.264,5.654,9.43,10.918,10.917l56.034,15.906 c5.257,1.496,10.821,0.105,14.59-3.656l53.207-53.207c3.761-3.762,5.16-9.326,3.664-14.582l-15.928-56.041 C311.492,205.215,307.334,201.057,302.085,199.562z"/> <path class="st0" d="M261.905,99.385c-13.371,0.763-30.369,5.848-30.369,5.848c-2.714,0.516-5.048,2.146-6.462,4.486 c-1.414,2.341-1.787,5.197-1.009,7.882l13.229,46.552c1.495,5.257,5.646,9.415,10.903,10.91l56.042,15.929 c5.257,1.495,10.813,0.105,14.574-3.664l43.777-43.777c2.168-2.176,3.179-5.257,2.73-8.368c-0.434-3.104-2.281-5.87-5.004-7.515 c0,0-11.688-9.796-26.33-15.914C312.898,102.967,288.055,97.881,261.905,99.385z"/> <path class="st0" d="M115.415,225.878l41.855,11.882c5.257,1.496,10.806,0.105,14.574-3.664l53.215-53.206 c3.754-3.762,5.152-9.326,3.656-14.582l-2.101-7.389l-10.297-36.224c-0.853-3.006-3.029-5.504-5.886-6.775 c-2.864-1.279-6.11-1.189-8.809,0.247c0,0-11.21,4.442-21.903,11.591c-11.285,7.568-22.188,16.579-32.62,27.003 c-10.185,10.193-18.949,20.976-26.263,32.268c-7.321,11.307-12.07,24.386-12.07,24.386c-1.331,2.685-1.353,5.885-0.074,8.697 C109.986,222.909,112.454,225.033,115.415,225.878z"/> <path class="st0" d="M181.941,313.289l-15.921-56.042c-1.481-5.264-5.646-9.422-10.911-10.917l-3.111-0.883l-40.853-11.606 c-2.722-0.77-5.608-0.389-7.964,1.054c-2.348,1.444-3.956,3.821-4.449,6.573c0,0-3.754,13.76-4.487,25.485 c-1.705,27.28-2.879,58.913,5.242,79.583c6.207,15.764,15.114,26.488,15.114,26.488c1.585,2.796,4.382,4.726,7.53,5.219 c3.14,0.479,6.282-0.523,8.48-2.722l47.658-47.65C182.03,324.103,183.444,318.547,181.941,313.289z"/> <path class="st0" d="M385.271,152.614c-1.645-2.714-4.412-4.562-7.523-5.01c-3.104-0.434-6.184,0.576-8.353,2.737l-43.784,43.777 c-3.762,3.769-5.16,9.326-3.672,14.59l15.936,56.033c1.488,5.25,5.654,9.408,10.91,10.904l46.544,13.228 c2.7,0.77,5.549,0.397,7.89-1.009c2.34-1.414,3.964-3.754,4.479-6.454c0,0,5.085-17.013,5.856-30.376 c1.503-26.144-3.582-51-12.376-72.09C395.06,164.31,385.271,152.614,385.271,152.614z"/> <path class="st0" d="M390.252,296.62l-36.231-10.297l-7.389-2.109c-5.257-1.496-10.813-0.09-14.575,3.664l-53.214,53.215 c-3.761,3.754-5.16,9.325-3.664,14.575l11.882,41.855c0.845,2.961,2.969,5.422,5.773,6.715c2.798,1.286,5.998,1.256,8.69-0.067 c0,0,13.079-4.756,24.386-12.062c11.292-7.314,22.075-16.086,32.275-26.279c10.425-10.432,19.436-21.327,26.996-32.619 c7.157-10.687,11.599-21.904,11.599-21.904c1.413-2.7,1.518-5.93,0.239-8.802C395.748,299.635,393.25,297.466,390.252,296.62z"/> <path class="st0" d="M267.483,360.933l-0.875-3.104c-1.496-5.264-5.66-9.429-10.918-10.918l-56.049-15.913 c-5.249-1.496-10.813-0.097-14.575,3.672l-47.651,47.658c-2.198,2.198-3.208,5.332-2.722,8.48c0.501,3.141,2.423,5.938,5.22,7.524 c0,0,10.724,8.914,26.488,15.113c20.669,8.128,52.302,6.954,79.582,5.249c11.718-0.74,25.478-4.494,25.478-4.494 c2.752-0.493,5.13-2.094,6.581-4.442c1.443-2.362,1.825-5.234,1.047-7.972L267.483,360.933z"/> <path class="st0" d="M400.145,159.793c0,0,24.17-8.062,31.206-13.094c7.06-5.04,21.156-31.221,21.156-39.275 s4.031-16.108-13.094-33.232c-17.117-17.118-25.178-13.095-33.225-13.095c-8.069,0-34.243,14.104-39.283,21.148 c-5.04,7.052-13.095,31.222-13.095,31.222s20.139,12.085,27.191,19.136C388.053,139.647,400.145,159.793,400.145,159.793z"/> <path class="st0" d="M157.457,41.78l67.363,19.212c0,0,7.306,19.159,8.839,32.485c35.91-12.392,66.623-3.164,66.623-3.164 l-9.153-42.199c-6.843-31.543-37.81-51.532-69.487-44.869l-63.123,13.289c-5.87,1.242-10.162,6.304-10.41,12.287 C147.855,34.796,151.714,40.15,157.457,41.78z"/> <path class="st0" d="M465.848,222.841l-42.199-9.153c0,0,9.235,30.704-3.157,66.622c13.319,1.526,32.478,8.832,32.478,8.832 l19.211,67.37c1.638,5.728,6.985,9.602,12.967,9.348c5.975-0.254,11.046-4.546,12.279-10.409l13.289-63.123 C517.388,260.651,497.391,229.676,465.848,222.841z"/> <path class="st0" d="M44.694,255.095c-15.397-2.573-29.725,9.138-31.961,15.196l-11.77,31.789 c-1.99,5.37-0.845,11.389,2.976,15.652c3.814,4.262,9.684,6.065,15.232,4.673l64.006-15.995c-6.416-19.249,0-46.193,0-46.193 L44.694,255.095z"/> <path class="st0" d="M249.812,426.853c0,0-26.944,6.416-46.185,0l-16.011,64.012c-1.384,5.549,0.419,11.412,4.681,15.226 c4.263,3.821,10.283,4.973,15.66,2.984l31.781-11.778c6.05-2.244,17.769-16.556,15.196-31.962L249.812,426.853z"/> </g> </g>
</svg>