<!DOCTYPE svg PUBLIC "-//W3C//DTD SVG 1.1//EN" "http://www.w3.org/Graphics/SVG/1.1/DTD/svg11.dtd">
<!-- Uploaded to: SVG Repo, www.svgrepo.com, Transformed by: SVG Repo Mixer Tools -->
<svg fill="#ffffff" height="800px" width="800px" version="1.2" baseProfile="tiny" id="Layer_1" xmlns="http://www.w3.org/2000/svg" xmlns:xlink="http://www.w3.org/1999/xlink" viewBox="0 0 256 256" xml:space="preserve" stroke="#ffffff">
<g id="SVGRepo_bgCarrier" stroke-width="0"/>
<g id="SVGRepo_tracerCarrier" stroke-linecap="round" stroke-linejoin="round"/>
<g id="SVGRepo_iconCarrier"> <path id="XMLID_3_" d="M204.4,146.7c-3.4-10.2,2.1-21.2,12.3-24.7c10.2-3.4,21.3,2,24.7,12.2c3.4,10.2-2.1,21.3-12.3,24.7 C218.9,162.4,207.8,156.9,204.4,146.7z M14.6,176.1l181.1-1.2l0,0l7.1,5.9c0,0,3.2,3.4,9.5,3.7l24,1.2l0,0l7.8,0.1 c0.9,0,1.8-0.1,2.8-0.5c4.7-1.6,7.3-6.7,5.7-11.5c-1.2-3.6-4.4-5.9-8-6.1l-28.9-1.4l-29.7-26.6c0,0-2.8-3.1-8.8-3.3L13.8,155.7 c-0.1,0-0.4,0-0.6,0l-0.3,0c0,0,0,0,0,0c-4,0.6-8.9,4.9-8.9,10.2C4.1,171.6,8.9,176.1,14.6,176.1z M256,192h-13.6h-229H0v13h256V192 z M123,137.3v-13l-16.2-27.9c-0.5-1,0-2.6,0.8-3.3c1-0.5,2.6-0.1,3.3,0.7l18.8,32.8c1.4,2.5,4,4.5,7,4.5h32.6c4.6,0,8.3-4.2,8.3-8.7 c0-4.2-3.8-8.1-8.3-8.1l-27.1,0.2L120.7,78c-1.6-2.9-4.8-4.4-8.6-4.4c-0.4,0-1.8,0.1-2.3,0.3c-0.4,0.1-1.2,0.3-1.8,0.4 c-15.8,5.2-23.6,30.2-23.6,56.3c0,2.5,0,9,0.1,10.3L123,137.3z M131.3,73.4c10.4,0,18.8-8.5,18.8-18.8c0-10.5-8.5-18.9-18.8-18.9 c-10.5,0-18.9,8.5-18.8,18.9C112.5,65,121,73.4,131.3,73.4z M13,192H0 M13,192H0 M256,191.9L256,191.9 M256,192h-13 M256,192h-13"/> </g>
</svg>