<!DOCTYPE svg PUBLIC "-//W3C//DTD SVG 1.1//EN" "http://www.w3.org/Graphics/SVG/1.1/DTD/svg11.dtd">
<!-- Uploaded to: SVG Repo, www.svgrepo.com, Transformed by: SVG Repo Mixer Tools -->
<svg fill="#007bff" width="800px" height="800px" viewBox="0 0 14 14" role="img" focusable="false" aria-hidden="true" xmlns="http://www.w3.org/2000/svg" stroke="#007bff">
<g id="SVGRepo_bgCarrier" stroke-width="0"/>
<g id="SVGRepo_tracerCarrier" stroke-linecap="round" stroke-linejoin="round"/>
<g id="SVGRepo_iconCarrier">
<path d="m 2.2,8.2 0,-6 -1.2,0 0,9.6 1.2,0 0,-1.2 9.6,0 0,1.2 1.2,0 0,-1.8 0,-1.8 -10.8,0 z M 7,4.6 l 4.800231,0 C 12.462845,4.6 13,5.13634 13,5.802929 L 13,7.6 l -6,0 0,-3 z m -2.4,3 C 5.5941126,7.6 6.4,6.794113 6.4,5.8 6.4,4.805887 5.5941126,4 4.6,4 3.6058874,4 2.8,4.805887 2.8,5.8 c 0,0.994113 0.8058874,1.8 1.8,1.8 z"/>
</g>
</svg>